HIERARCHY
ROOT hip
{
  OFFSET 0 0 0
  CHANNELS 6 Xposition Yposition Zposition Zrotation Yrotation Xrotation
  JOINT abdomen
  {
    OFFSET 0 20.6881 -0.73152
    CHANNELS 3 Zrotation Xrotation Yrotation
    JOINT chest
    {
      OFFSET 0 11.7043 -0.48768
      CHANNELS 3 Zrotation Xrotation Yrotation
      JOINT neck
      {
        OFFSET 0 22.1894 -2.19456
        CHANNELS 3 Zrotation Xrotation Yrotation
        JOINT head
        {
          OFFSET -0.24384 7.07133 1.2192
          CHANNELS 3 Zrotation Xrotation Yrotation
          JOINT leftEye
          {
            OFFSET 4.14528 8.04674 8.04672
            CHANNELS 3 Zrotation Xrotation Yrotation
            End Site
            {
              OFFSET 1 0 0
            }
          }
          JOINT rightEye
          {
            OFFSET -3.6576 8.04674 8.04672
            CHANNELS 3 Zrotation Xrotation Yrotation
            End Site
            {
              OFFSET 1 0 0
            }
          }
        }
      }
      JOINT rCollar
      {
        OFFSET -2.68224 19.2634 -4.8768
        CHANNELS 3 Zrotation Xrotation Yrotation
        JOINT rShldr
        {
          OFFSET -8.77824 -1.95073 1.46304
          CHANNELS 3 Zrotation Xrotation Yrotation
          JOINT rForeArm
          {
            OFFSET -28.1742 -1.7115 0.48768
            CHANNELS 3 Zrotation Xrotation Yrotation
            JOINT rHand
            {
              OFFSET -22.5879 0.773209 7.07136
              CHANNELS 3 Zrotation Xrotation Yrotation
              JOINT rThumb1
              {
                OFFSET -1.2192 -0.487915 3.41376
                CHANNELS 3 Zrotation Xrotation Yrotation
                JOINT rThumb2
                {
                  OFFSET -3.37035 -0.52449 3.41376
                  CHANNELS 3 Zrotation Xrotation Yrotation
                  End Site
                  {
                    OFFSET -1.78271 -1.18214 1.43049
                  }
                }
              }
              JOINT rIndex1
              {
                OFFSET -7.75947 0.938293 5.60832
                CHANNELS 3 Zrotation Xrotation Yrotation
                JOINT rIndex2
                {
                  OFFSET -2.54057 -0.884171 1.56538
                  CHANNELS 3 Zrotation Xrotation Yrotation
                  End Site
                  {
                    OFFSET -1.62519 -0.234802 1.16502
                  }
                }
              }
              JOINT rMid1
              {
                OFFSET -8.24714 1.18213 3.41376
                CHANNELS 3 Zrotation Xrotation Yrotation
                JOINT rMid2
                {
                  OFFSET -3.10165 -0.590103 1.0647
                  CHANNELS 3 Zrotation Xrotation Yrotation
                  End Site
                  {
                    OFFSET -2.48547 -0.328903 0.83742
                  }
                }
              }
              JOINT rRing1
              {
                OFFSET -8.82822 0.546677 1.51678
                CHANNELS 3 Zrotation Xrotation Yrotation
                JOINT rRing2
                {
                  OFFSET -2.60934 -0.819778 -0.0198488
                  CHANNELS 3 Zrotation Xrotation Yrotation
                  End Site
                  {
                    OFFSET -2.33842 -0.294052 0.168128
                  }
                }
              }
              JOINT rPinky1
              {
                OFFSET -8.27202 -0.0477905 -0.4584
                CHANNELS 3 Zrotation Xrotation Yrotation
                JOINT rPinky2
                {
                  OFFSET -1.82734 -0.647385 -0.700984
                  CHANNELS 3 Zrotation Xrotation Yrotation
                  End Site
                  {
                    OFFSET -1.69225 -0.51767 -0.607171
                  }
                }
              }
            }
          }
        }
      }
      JOINT lCollar
      {
        OFFSET 2.68224 19.2634 -4.8768
        CHANNELS 3 Zrotation Xrotation Yrotation
        JOINT lShldr
        {
          OFFSET 8.77824 -1.95073 1.46304
          CHANNELS 3 Zrotation Xrotation Yrotation
          JOINT lForeArm
          {
            OFFSET 28.1742 -1.7115 0.48768
            CHANNELS 3 Zrotation Xrotation Yrotation
            JOINT lHand
            {
              OFFSET 22.5879 0.773209 7.07136
              CHANNELS 3 Zrotation Xrotation Yrotation
              JOINT lThumb1
              {
                OFFSET 1.2192 -0.487915 3.41376
                CHANNELS 3 Zrotation Xrotation Yrotation
                JOINT lThumb2
                {
                  OFFSET 3.37035 -0.52449 3.41376
                  CHANNELS 3 Zrotation Xrotation Yrotation
                  End Site
                  {
                    OFFSET 1.78271 -1.18214 1.43049
                  }
                }
              }
              JOINT lIndex1
              {
                OFFSET 7.75947 0.938293 5.60832
                CHANNELS 3 Zrotation Xrotation Yrotation
                JOINT lIndex2
                {
                  OFFSET 2.54057 -0.884171 1.56538
                  CHANNELS 3 Zrotation Xrotation Yrotation
                  End Site
                  {
                    OFFSET 1.62519 -0.234802 1.16502
                  }
                }
              }
              JOINT lMid1
              {
                OFFSET 8.24714 1.18213 3.41376
                CHANNELS 3 Zrotation Xrotation Yrotation
                JOINT lMid2
                {
                  OFFSET 3.10165 -0.590103 1.0647
                  CHANNELS 3 Zrotation Xrotation Yrotation
                  End Site
                  {
                    OFFSET 2.48547 -0.328903 0.83742
                  }
                }
              }
              JOINT lRing1
              {
                OFFSET 8.82822 0.546677 1.51678
                CHANNELS 3 Zrotation Xrotation Yrotation
                JOINT lRing2
                {
                  OFFSET 2.60934 -0.819778 -0.0198488
                  CHANNELS 3 Zrotation Xrotation Yrotation
                  End Site
                  {
                    OFFSET 2.33842 -0.294052 0.168128
                  }
                }
              }
              JOINT lPinky1
              {
                OFFSET 8.27202 -0.0477905 -0.4584
                CHANNELS 3 Zrotation Xrotation Yrotation
                JOINT lPinky2
                {
                  OFFSET 1.82734 -0.647385 -0.700984
                  CHANNELS 3 Zrotation Xrotation Yrotation
                  End Site
                  {
                    OFFSET 1.69225 -0.51767 -0.607171
                  }
                }
              }
            }
          }
        }
      }
    }
  }
  JOINT rButtock
  {
    OFFSET -8.77824 4.35084 1.2192
    CHANNELS 3 Zrotation Xrotation Yrotation
    JOINT rThigh
    {
      OFFSET 0 -1.70687 -2.19456
      CHANNELS 3 Zrotation Xrotation Yrotation
      JOINT rShin
      {
        OFFSET 0 -36.8199 0.73152
        CHANNELS 3 Zrotation Xrotation Yrotation
        JOINT rFoot
        {
          OFFSET 0.73152 -45.1104 -5.12064
          CHANNELS 3 Zrotation Xrotation Yrotation
          End Site
          {
            OFFSET -1.1221 -3.69964 12.103
          }
        }
      }
    }
  }
  JOINT lButtock
  {
    OFFSET 8.77824 4.35084 1.2192
    CHANNELS 3 Zrotation Xrotation Yrotation
    JOINT lThigh
    {
      OFFSET 0 -1.70687 -2.19456
      CHANNELS 3 Zrotation Xrotation Yrotation
      JOINT lShin
      {
        OFFSET 0 -36.8199 0.73152
        CHANNELS 3 Zrotation Xrotation Yrotation
        JOINT lFoot
        {
          OFFSET -0.73152 -45.1104 -5.12064
          CHANNELS 3 Zrotation Xrotation Yrotation
          End Site
          {
            OFFSET 1.1221 -3.69964 12.103
          }
        }
      }
    }
  }
}
MOTION
Frames:	9
Frame Time:	0.03333
0.0 0.0 0.0 0.0 0.0 0.0 0.0 0.0 0.0 0.0 0.0 0.0 0.0 0.0 0.0 0.0 0.0 0.0 0.0 0.0 0.0 0.0 0.0 0.0 0.0 0.0 0.0 0.0 0.0 0.0 0.0 0.0 0.0 0.0 0.0 0.0 0.0 0.0 0.0 0.0 0.0 0.0 0.0 0.0 0.0 0.0 0.0 0.0 0.0 0.0 0.0 0.0 0.0 0.0 0.0 0.0 0.0 0.0 0.0 0.0 0.0 0.0 0.0 0.0 0.0 0.0 0.0 0.0 0.0 0.0 0.0 0.0 0.0 0.0 0.0 0.0 0.0 0.0 0.0 0.0 0.0 0.0 0.0 0.0 0.0 0.0 0.0 0.0 0.0 0.0 0.0 0.0 0.0 0.0 0.0 0.0 0.0 0.0 0.0 0.0 0.0 0.0 0.0 0.0 0.0 0.0 0.0 0.0 0.0 0.0 0.0 0.0 0.0 0.0 0.0 0.0 0.0 0.0 0.0 0.0 0.0 0.0 0.0 0.0 0.0 0.0 0.0 0.0 0.0 0.0 0.0 0.0
-0.051699999999999996 60.742700000000006 -0.0183 167.947747 53.430726 170.261052 -15.59856 15.854035 28.099085 0.06027 -12.235975 -32.036935 -10.145694 17.322286 -26.254064 19.799518 -20.57198 0.197718 -0.001355 0.0 -0.003773 0.005056 0.0 0.001181 -157.608489 -66.856916 175.96181 147.413486 27.941433 -143.909197 -99.78498 31.62335 55.441186 60.479608 -65.546762 48.121185 -68.055768 37.899428 35.359655 -131.307129 -24.842314 85.105215 -100.823492 37.733217 85.161976 12.37104 -10.964191 -6.86593 -89.835902 60.702203 81.262556 2.581436 2.470414 0.51707 -74.842144 72.960513 92.828176 3.154812 45.884809 2.704873 1.135705 3.040826 1.040925 35.438087 80.49365 0.865888 147.802104 28.731527 -152.619883 73.068399 19.756656 -31.048044 8.961875 -29.839833 70.227558 -152.886017 -45.148985 -134.257579 176.069201 -13.696964 -89.739388 -2.070533 -57.809515 -6.627377 166.822515 -43.973223 -122.063164 -96.666025 -70.128719 -41.057413 39.288261 53.366725 -32.876743 13.282867 36.403513 -10.771086 145.120365 0.26851 179.210957 -10.586646 66.554715 -0.196159 156.382269 53.734162 150.117912 128.794608 -28.145866 125.603209 -179.999926 75.751337 -6.5e-05 150.708066 5.953296 -100.474783 -75.628052 -21.048622 1.657238 149.756377 -11.92564 -101.440675 -0.00102 -0.000788 0.001311 9.369797 8.437512 131.644684 34.581002 -24.551238 -94.965444 35.715102 -15.834821 9.662224
-0.1057 61.0192 -0.0585 168.310607 53.655026 170.595113 -14.055375 16.17608 -0.0 4.669923 -11.069748 -3.74301 -12.223188 19.08746 -40.946335 26.997252 -14.756577 15.350418 0.003229 0.0 0.003667 -0.00267 -0.0 0.004518 -120.44959 60.638012 124.076628 -121.212286 25.542558 101.777054 118.898934 48.642547 -79.620896 -43.475566 71.101607 28.585244 -171.705928 -9.3885 89.948767 11.773723 -59.715127 13.813156 159.641667 -69.973238 102.397691 -5.49108 32.264405 3.168247 -164.183776 -17.817429 144.603477 16.037302 -37.024448 -0.39697 -145.107688 -0.953332 -178.829786 11.677984 58.792074 -1.660508 0.209828 0.552263 0.193635 -166.465099 71.594068 -148.529532 153.155221 9.523055 -158.798052 61.825999 8.9926 -9.359042 177.255454 8.081608 149.423527 8.193599 33.102135 -2.229561 160.051836 2.213052 -88.877492 135.795836 4.57272 -66.278391 2.688081 4.22638 -1.58302 178.23562 -34.218263 -106.372087 -6.53169 -20.415126 2.719001 -167.94862 -64.078558 -133.220347 67.609172 -72.073624 84.374662 149.896888 -27.337898 -179.989982 -9.966485 32.461907 -8.625523 -54.956846 84.909898 17.60923 0.002692 0.001645 0.000673 -57.185375 -54.596214 180.0 -72.644977 -44.352521 -1.996016 72.103353 -49.511865 177.287166 -179.988168 75.749613 -0.008095 -109.980438 79.29365 -69.492424 -1.426996 43.392151 73.172637 -112.663618 14.163579 -1.527702
-0.14170000000000002 61.1916 -0.0852 168.101109 53.75147 170.592398 -11.671157 13.731592 -87.060236 8.922393 1.805182 82.24081 3.109383 16.984795 48.025748 -24.173734 -13.00321 -81.144904 0.001962 -0.0 -0.002678 -0.003033 -0.0 0.003693 -157.882905 -65.638203 175.442212 -79.242292 -49.457976 -67.963972 -9.334535 7.712504 -79.223065 153.098923 -44.585453 134.568562 0.48868 -0.483085 -0.073278 -15.194324 15.060975 12.868426 12.216781 -21.784668 -5.119763 -156.084729 -9.427319 110.832485 173.121739 -66.2976 137.612648 -163.52439 -4.951347 143.08722 -69.297021 72.946989 87.016726 -95.201027 82.777625 104.24675 -144.64598 10.416763 -141.352543 -147.569451 11.822842 -141.723739 155.809339 -5.555372 -162.266945 127.416989 -81.362332 74.01464 65.413541 -80.311619 38.366468 3.369843 19.52027 -1.243523 78.03041 38.689104 -42.412906 78.149328 -1.461018 -62.271529 -60.461867 -70.523561 -15.709996 177.192761 -43.997896 -108.459266 158.52286 -0.19193 -142.145291 155.85231 15.491659 -139.527786 0.00684 3.472086 -1.090991 -10.096036 -58.324315 8.07114 25.536618 -38.087339 24.599433 4.651514 -17.956128 7.218583 0.000101 0.000498 0.0 -57.234583 -54.64233 180.0 -69.985158 -44.154695 15.119753 6.507814 52.976842 86.072656 -0.000116 -0.001122 0.00015 10.079068 10.242055 -0.0 -13.41526 38.322451 -35.28961 64.414182 60.143997 33.61333
-0.145 61.212500000000006 -0.0964 168.231933 53.707463 170.844974 -14.221529 15.751743 3.354845 4.327589 -11.204434 -7.203626 -14.382291 24.369452 -74.09292 35.661897 2.438963 44.957765 0.006063 0.0 0.003668 -0.000526 0.0 -0.001228 -0.04906 0.292371 0.065188 57.220591 -74.682556 -6.355692 70.840703 -0.215526 -7.777529 -163.286558 55.986328 139.393096 -1.50901 1.483154 0.25203 -8.478843 9.345805 8.129504 -85.858358 41.977395 71.893625 -10.533939 24.188854 2.127383 23.907293 -61.333191 1.403072 -159.407226 7.056783 141.581341 -145.119871 0.185615 -179.186293 -156.509733 15.309702 178.979828 -12.0081 -23.631778 -11.402931 -147.419307 13.478614 -144.012776 80.166091 68.371625 -83.260886 98.038019 10.529458 -87.863833 -0.410158 -20.709954 66.223893 -158.674143 -36.252971 -138.99997 162.193443 0.113084 -89.248895 126.490126 7.709509 -60.444154 50.385605 40.826615 -40.024883 3.317337 14.364647 -0.51147 -2.100645 -6.305455 1.079749 168.836619 -21.902821 -144.329586 145.110384 -0.627139 178.931159 144.880165 -51.031306 167.227615 144.259658 9.236922 141.011382 -8.441502 16.994227 -2.340369 -0.000252 -0.001094 0.000324 -55.960865 -54.142982 -130.902012 -80.471978 8.687863 -80.537607 -149.634046 23.31676 -175.962282 -179.998034 75.749112 -0.001735 -120.839253 79.662311 42.674859 48.861719 4.665243 144.286291 -113.147473 30.972281 -158.254171
-0.1418 61.0873 -0.1005 168.391245 53.575023 170.966034 -13.92931 10.95748 -180.0 -4.816096 6.189664 175.645286 0.859108 15.583648 34.819984 -17.690601 -18.242208 -67.77604 -0.002272 -0.0 0.000261 -0.002272 -0.0 0.000261 -159.219924 -47.732189 170.350283 -39.58861 -17.83343 -26.201263 -168.423359 12.916585 -135.0077 -5.493284 25.781908 1.520878 -2.813288 2.754495 0.497884 -93.825907 15.969631 86.256987 -148.886887 -12.609611 120.244658 -171.938486 -34.796268 117.682638 -36.035304 51.723417 29.831956 2.835017 1.674065 0.297984 -145.120714 1.974616 -179.748509 -24.098118 -71.882133 -45.179273 -136.044108 -11.442468 -133.392596 -147.237839 12.128978 -141.907373 154.820458 -73.937719 179.839073 -178.725529 1.199315 123.830611 168.277445 70.200116 -105.363878 -159.633818 -34.592513 -139.697664 4.165371 4.057991 -0.782932 121.837966 -15.133239 -108.690785 -10.281291 -18.182587 4.58807 4.966367 23.543696 -6.390862 0.570241 1.648564 -0.321378 42.067247 58.557869 -36.105062 145.119904 0.267576 179.212862 144.953139 -51.034778 167.22756 146.186164 15.332212 142.711053 147.75506 12.080286 141.785096 -179.997283 75.749309 0.0 149.565299 7.659431 3.816668 8.284679 67.228189 28.971976 65.600801 -36.77382 -24.083746 -0.005422 0.000324 -0.002711 9.454429 8.251989 130.757855 42.950386 -16.294444 161.528516 39.258673 -3.359197 114.8402
-0.1369 60.8255 -0.0816 168.455134 53.565463 170.923865 -11.773447 12.526897 -113.874502 5.974475 5.551312 108.739898 3.100835 16.84033 48.200251 -23.650301 -12.782521 -81.288365 -0.002781 -0.0 0.000143 -0.002565 -0.0 2.4e-05 -155.809515 -5.555307 162.267096 -41.769411 -3.584476 7.596622 -166.876357 0.415279 -133.464954 -4.793625 23.74343 1.39832 -166.68954 -4.362757 89.776394 -151.828058 1.932445 77.287943 11.072427 -19.658003 -4.820038 -78.322763 48.60544 62.924285 -158.521867 -0.192273 142.144702 -163.267678 -4.789721 142.967907 -0.000837 0.063953 0.019344 -155.422529 -1.211205 171.992334 -161.700012 70.564313 -151.029702 -161.888139 54.105709 -147.621169 6.042188 25.59914 -7.234556 99.805943 -8.565557 -143.900089 165.180865 -7.660453 148.721544 2.900326 17.971592 -1.199071 103.199087 36.330548 -60.111432 164.461834 -31.533588 -78.01824 1.567022 2.494171 -0.907412 113.645161 38.259032 -88.795175 -173.121244 -66.297583 -137.61167 -13.830039 -31.943929 0.976103 0.00024 -0.060881 0.018888 155.385166 -58.316744 -179.837492 -19.282432 66.825441 -13.091675 160.364561 52.371673 148.82903 -179.982016 75.75076 -0.014797 150.840753 6.026463 -100.656607 -74.29027 -20.731303 10.613416 79.966777 -69.9113 -173.829489 -0.005006 0.000681 -0.002503 10.503068 10.104761 -1.655357 -3.901351 48.490425 121.200123 -103.448429 59.125307 -5.557251
-0.1156 60.5124 -0.0772 168.525755 53.535159 170.892483 -16.342094 14.476219 67.10152 -5.928796 -10.379306 -71.584258 -11.324961 17.862112 -34.357683 23.50043 -16.547902 8.411392 0.001274 -0.0 -0.00206 -0.004001 -0.0 0.004371 -14.149108 43.061309 15.99736 61.334465 -8.065596 35.653926 9.788497 -19.011841 51.22555 -10.848983 39.555131 3.292582 83.253836 -50.257155 33.616714 -156.948522 -79.433265 158.130367 -13.871594 18.814889 9.290811 -163.018643 -12.549566 110.34246 -160.573337 -6.3595 143.197593 84.671041 -77.869036 56.037383 -145.11922 0.267712 -179.212489 -152.94872 -21.618107 -175.989134 -81.323523 -51.182774 -79.74096 -137.616393 -11.303031 -135.539737 0.272933 1.606886 -0.360413 94.007122 3.714914 -166.712673 14.828408 -1.878248 63.166381 -144.478648 -53.271491 -127.210945 169.572103 -7.253974 -89.929009 28.099558 -32.671589 -5.026739 -12.56186 -22.428452 5.20217 172.771087 -32.17967 -108.056685 36.035481 51.723152 -29.832565 167.881361 -19.501501 -144.192189 0.00861 -0.831179 0.261051 140.302626 60.455663 -154.52232 -3.652752 10.395846 -3.321323 -1.440544 -2.298829 0.728127 -179.997196 75.748114 -0.001919 148.752035 6.187862 79.9268 68.722202 10.151041 -51.830455 -82.112154 7.887113 20.611241 -0.002843 -0.000987 -0.004265 11.951056 8.782977 -82.884828 -40.884812 -4.041509 66.175665 -160.698141 -44.550778 -67.045164
-0.0085 60.2128 -0.0924 168.493637 53.474332 170.821527 -14.410877 15.835788 3.422242 4.668429 -11.056002 -7.095514 -12.027935 18.76444 -40.125265 25.967103 -14.11962 14.102456 0.000353 -0.0 -0.004449 0.00013 -0.0 -0.004324 -158.465209 -30.012015 166.911387 -36.358423 10.038495 -10.803451 70.657108 12.166692 -65.992166 -171.150641 43.459946 144.349 -80.964366 38.736701 44.499671 -108.043089 -10.982506 74.523979 -151.352652 -17.158679 121.132837 8.975008 4.639773 -9.162391 -125.643972 49.839606 115.273482 -179.801351 -48.716244 141.059329 -145.119485 0.310334 -179.225251 -148.110936 -43.126888 -170.57165 -134.695503 -14.105274 -132.113702 -147.179569 12.12717 -141.936873 158.897284 -36.946365 -168.197224 -140.284447 1.16772 147.936618 -2.08141 -17.901315 -32.651546 7.059689 30.108644 -1.881898 -178.34042 -19.01913 -88.988101 127.76298 17.267535 -63.943778 151.352761 -17.158381 -121.133458 166.373863 -25.8269 -119.136394 36.036754 51.723072 -29.832027 163.16399 -4.971533 -143.274499 145.101192 -1.521017 178.648869 29.961156 -73.746758 51.378485 137.664607 -7.993012 134.927295 146.209344 8.962804 141.117863 179.961576 75.749167 0.029615 150.979936 5.439423 -99.696514 -71.415001 -18.609912 47.842004 79.977463 40.198356 -0.664756 179.917564 75.750776 0.063538 -117.284604 78.900802 -0.0 33.670429 29.3967 -119.771536 99.81007 77.681768 -0.765622
